<svg t="1743123381158" class="icon" viewBox="0 0 1024 1024" version="1.1" xmlns="http://www.w3.org/2000/svg" p-id="5594" width="200" height="200"><path d="M682.666667 128a42.666667 42.666667 0 1 0 0 85.333333V128z m85.333333 42.666667V128v42.666667zM170.666667 853.333333H128h42.666667zM256 170.666667V128v42.666667z m85.333333 42.666666a42.666667 42.666667 0 0 0 0-85.333333v85.333333z m341.333334 0h85.333333V128h-85.333333v85.333333z m85.333333 0a42.666667 42.666667 0 0 1 30.165333 12.501334l60.330667-60.330667A128 128 0 0 0 768 128v85.333333z m30.165333 12.501334A42.666667 42.666667 0 0 1 810.666667 256h85.333333a128 128 0 0 0-37.504-90.496l-60.330667 60.330667zM810.666667 256v597.333333h85.333333V256h-85.333333z m0 597.333333a42.666667 42.666667 0 0 1-12.501334 30.165334l60.330667 60.330666A128 128 0 0 0 896 853.333333h-85.333333z m-12.501334 30.165334A42.666667 42.666667 0 0 1 768 896v85.333333a128 128 0 0 0 90.496-37.504l-60.330667-60.330666zM768 896H256v85.333333h512v-85.333333zM256 896a42.666667 42.666667 0 0 1-30.165333-12.501333l-60.330667 60.330666A128 128 0 0 0 256 981.333333v-85.333333z m-30.165333-12.501333A42.666667 42.666667 0 0 1 213.333333 853.333333H128a128 128 0 0 0 37.504 90.496l60.330667-60.330666zM213.333333 853.333333V256H128v597.333333h85.333333zM213.333333 256a42.666667 42.666667 0 0 1 12.501334-30.165333L165.504 165.504A128 128 0 0 0 128 256h85.333333z m12.501334-30.165333A42.666667 42.666667 0 0 1 256 213.333333V128a128 128 0 0 0-90.496 37.504l60.330667 60.330667zM256 213.333333h85.333333V128H256v85.333333z" p-id="5595"></path><path d="M384 128h256V42.666667H384v85.333333z m256 0h85.333333a85.333333 85.333333 0 0 0-85.333333-85.333333v85.333333z m0 0v85.333333h85.333333V128h-85.333333z m0 85.333333v85.333334a85.333333 85.333333 0 0 0 85.333333-85.333334h-85.333333z m0 0H384v85.333334h256V213.333333zM384 213.333333H298.666667a85.333333 85.333333 0 0 0 85.333333 85.333334V213.333333z m0 0V128H298.666667v85.333333h85.333333z m0-85.333333V42.666667a85.333333 85.333333 0 0 0-85.333333 85.333333h85.333333z" p-id="5596"></path></svg>